Coordinates
version=1
nRows=9
nColumns=24
inDegrees=yes

Units are S.I. units (second, meters, Newtons, ...)
Angles are in degrees.

endheader
time	pelvis_tilt	pelvis_list	pelvis_rotation	pelvis_tx	pelvis_ty	pelvis_tz	hip_flexion_r	hip_adduction_r	hip_rotation_r	knee_angle_r	ankle_angle_r	subtalar_angle_r	mtp_angle_r	hip_flexion_l	hip_adduction_l	hip_rotation_l	knee_angle_l	ankle_angle_l	subtalar_angle_l	mtp_angle_l	lumbar_extension	lumbar_bending	lumbar_rotation
      1.74200000	     -0.79410361	      2.53035974	     -3.80076442	      1.28202676	      1.00533054	      0.27440652	     21.91571766	     -6.67985209	     -4.98738128	    -77.74680551	     -4.34829072	     -5.64316748	      2.15177086	     16.33977160	      3.43513241	     -6.55420923	    -19.12670015	      3.13773842	    -12.34573134	    -12.00151312	     -8.61326308	     -6.58872981	      1.41036489
      1.74616667	     -0.66351454	      2.37955522	     -3.52221306	      1.28669813	      1.00664769	      0.27364283	     22.43953954	     -6.53561723	     -5.28276125	    -77.58995881	     -3.98674350	     -5.50760186	      2.18227457	     15.74044314	      3.42273494	     -6.25716140	    -18.79790159	      3.19570915	    -12.27872164	    -12.01271695	     -8.82701518	     -6.35160745	      1.16463728
      1.75033333	     -0.53062716	      2.22373722	     -3.24052751	      1.29142333	      1.00798129	      0.27285894	     22.93287226	     -6.39861559	     -5.59400679	    -77.36907464	     -3.64394708	     -5.39052882	      2.20926630	     15.12822607	      3.40254564	     -5.95363566	    -18.45739518	      3.23907393	    -12.23681339	    -12.02503942	     -9.03725419	     -6.10325157	      0.88889999
      1.75450000	     -0.36335121	      2.07581153	     -2.96597959	      1.29612505	      1.00935498	      0.27208526	     23.37950650	     -6.27629816	     -5.90676309	    -77.10086288	     -3.31962684	     -5.33536817	      2.23773944	     14.46741234	      3.38924026	     -5.64347236	    -18.07955726	      3.24010248	    -12.23890223	    -12.03830674	     -9.28766763	     -5.87087951	      0.62012650
      1.75866667	     -0.23958167	      1.94673169	     -2.72429359	      1.30081737	      1.01060025	      0.27140183	     23.87674363	     -6.16153037	     -6.17888415	    -76.80901370	     -2.97819271	     -5.19224424	      2.25670160	     13.85670188	      3.36953251	     -5.40503750	    -17.71298873	      3.29828115	    -12.15870347	    -12.04631588	     -9.47425204	     -5.65193106	      0.41544123
      1.76283333	     -0.08627262	      1.79101432	     -2.47791777	      1.30548293	      1.01189109	      0.27073022	     24.31980067	     -6.02291611	     -6.47076271	    -76.45178349	     -2.62461554	     -5.07814160	      2.26844639	     13.21841787	      3.31839224	     -5.14526034	    -17.35521026	      3.34112795	    -12.10499428	    -12.05466509	     -9.70238912	     -5.42174911	      0.19909705
      1.76700000	      0.07968193	      1.66615083	     -2.24422225	      1.31013697	      1.01317235	      0.27005746	     24.74011674	     -5.92375025	     -6.74901100	    -76.06220948	     -2.28782949	     -4.99704281	      2.27412519	     12.54941903	      3.29843517	     -4.89839593	    -16.94594206	      3.33625262	    -12.10383989	    -12.06387021	     -9.93779187	     -5.19991461	     -0.02676787
      1.77116667	      0.18616743	      1.52217702	     -2.01910176	      1.31478048	      1.01431398	      0.26946883	     25.21780558	     -5.79164788	     -7.02347312	    -75.62754001	     -1.96550503	     -4.90541200	      2.27579818	     11.96361387	      3.23685363	     -4.67574443	    -16.59042480	      3.39383160	    -12.03328538	    -12.06828281	    -10.10446375	     -4.98351542	     -0.18895808
      1.77533333	      0.33437254	      1.39988548	     -1.81172307	      1.31943276	      1.01550029	      0.26887702	     25.63388738	     -5.69047572	     -7.28196160	    -75.14895822	     -1.62920894	     -4.78873637	      2.27198763	     11.31902550	      3.19809423	     -4.46409240	    -16.19499832	      3.41545563	    -12.00314340	    -12.07482533	    -10.31836990	     -4.77471151	     -0.38805396
